<svg height="40" viewBox="0 0 300 300" width="40" xmlns="http://www.w3.org/2000/svg"><path d="M151.125 14.989C76.337 14.989 15.71 75.61 15.71 150.4c0 74.782 60.627 135.409 135.415 135.409 74.787 0 135.415-60.627 135.415-135.409 0-74.79-60.628-135.411-135.415-135.411zm0 251.675c-64.212 0-116.263-52.063-116.263-116.264 0-64.214 52.051-116.263 116.263-116.263S267.388 86.186 267.388 150.4c0 64.202-52.051 116.264-116.263 116.264z" fill="#238DB1"/><path d="M255.87 150.402c0 57.851-46.894 104.741-104.745 104.741S46.38 208.253 46.38 150.402c0-57.852 46.894-104.75 104.745-104.75S255.87 92.55 255.87 150.402z" fill="#238DB1"/><path fill="#FFF" d="M198.497 159.55h-24.816v63.753h-45.112V159.55h-24.816l24.816-43.237v-.202h.105l22.158-38.614 22.439 38.614h.406v.726z"/></svg>